#!OML:ASF E:\Style3\Style3.ASF
:FULLY-SPECIFIED
:DEGREES
3981
root -1.64859 17.07 1.95858 -1423.83 112.291 -1449.3
lowerback 12.0597 3.43461 -9.71648
upperback 7.25605 4.20072 -3.60811
thorax 0.578549 2.13932 1.16808
lowerneck -2.29846 -13.5016 -11.2275
upperneck 12.9267 -20.9815 25.4993
head 8.48384 -9.2078 8.23437
rclavicle 1.27222e-014 -2.54444e-014
rhumerus 88.4154 7.09643 -78.9764
rradius 15.4651
rwrist 58.4597
rhand -8.51961 20.7901
rfingers 7.12502
rthumb 17.4088 -8.45028
lclavicle 1.27222e-014 -2.54444e-014
lhumerus 37.0231 -50.1072 71.8195
lradius 120.119
lwrist 76.1124
lhand -32.8356 32.1306
lfingers 7.12502
lthumb -6.05554 62.0241
rfemur -51.1404 -4.16362 15.9674
rtibia 50.4889
rfoot -18.3258 -21.3304
rtoes -17.2231
lfemur -50.6007 -4.5131 -14.208
ltibia 31.9064
lfoot -4.19689 7.34017
ltoes -32.6932
3982
root -1.63964 17.067 1.94636 -1424.54 112.389 -1449.77
lowerback 12.0597 3.43461 -9.71648
upperback 7.25605 4.20072 -3.60811
thorax 0.578549 2.13932 1.16808
lowerneck -2.29846 -13.5016 -11.2275
upperneck 12.9267 -20.9815 25.4993
head 8.48384 -9.2078 8.23437
rclavicle 1.27222e-014 -2.54444e-014
rhumerus 88.4154 7.09643 -78.9764
rradius 15.4651
rwrist 58.4597
rhand -8.51961 20.7901
rfingers 7.12502
rthumb 17.4088 -8.45028
lclavicle 1.27222e-014 -2.54444e-014
lhumerus 37.0231 -50.1072 71.8195
lradius 120.119
lwrist 76.1124
lhand -32.8356 32.1306
lfingers 7.12502
lthumb -6.05554 62.0241
rfemur -51.0049 -4.08068 15.627
rtibia 50.939
rfoot -18.2164 -21.541
rtoes -17.6703
lfemur -50.3296 -4.51889 -14.5584
ltibia 32.0408
lfoot -4.42727 7.13287
ltoes -32.6601
3983
root -1.629 17.06 1.93076 -1424.96 112.273 -1450.09
lowerback 12.0597 3.43461 -9.71648
upperback 7.25605 4.20072 -3.60811
thorax 0.578549 2.13932 1.16808
lowerneck -2.29846 -13.5016 -11.2275
upperneck 12.9267 -20.9815 25.4993
head 8.48384 -9.2078 8.23437
rclavicle 1.27222e-014 -2.54444e-014
rhumerus 88.4154 7.09643 -78.9764
rradius 15.4651
rwrist 58.4597
rhand -8.51961 20.7901
rfingers 7.12502
rthumb 17.4088 -8.45028
lclavicle 1.27222e-014 -2.54444e-014
lhumerus 37.0231 -50.1072 71.8195
lradius 120.119
lwrist 76.1124
lhand -32.8356 32.1306
lfingers 7.12502
lthumb -6.05554 62.0241
rfemur -51.0807 -3.88939 15.3448
rtibia 51.4221
rfoot -18.032 -21.627
rtoes -18.2891
lfemur -50.184 -4.24123 -14.9294
ltibia 32.1905
lfoot -4.64082 6.88954
ltoes -32.8514
3984
root -1.62069 17.0549 1.9139 -1425.55 112.234 -1450.37
lowerback 12.0597 3.43461 -9.71648
upperback 7.25605 4.20072 -3.60811
thorax 0.578549 2.13932 1.16808
lowerneck -2.29846 -13.5016 -11.2275
upperneck 12.9267 -20.9815 25.4993
head 8.48384 -9.2078 8.23437
rclavicle 1.27222e-014 -2.54444e-014
rhumerus 88.4154 7.09643 -78.9764
rradius 15.4651
rwrist 58.4597
rhand -8.51961 20.7901
rfingers 7.12502
rthumb 17.4088 -8.45028
lclavicle 1.27222e-014 -2.54444e-014
lhumerus 37.0231 -50.1072 71.8195
lradius 120.119
lwrist 76.1124
lhand -32.8356 32.1306
lfingers 7.12502
lthumb -6.05554 62.0241
rfemur -50.9356 -3.78439 15.1018
rtibia 51.9068
rfoot -17.8127 -21.744
rtoes -18.9206
lfemur -49.8631 -4.05737 -15.2812
ltibia 32.3515
lfoot -4.85221 6.68941
ltoes -32.5155
3985
root -1.62012 17.0434 1.89884 -1425.89 112.477 -1450.52
lowerback 12.0597 3.43461 -9.71648
upperback 7.25605 4.20072 -3.60811
thorax 0.578549 2.13932 1.16808
lowerneck -2.29846 -13.5016 -11.2275
upperneck 12.9267 -20.9815 25.4993
head 8.48384 -9.2078 8.23437
rclavicle 1.27222e-014 -2.54444e-014
rhumerus 88.4154 7.09643 -78.9764
rradius 15.4651
rwrist 58.4597
rhand -8.51961 20.7901
rfingers 7.12502
rthumb 17.4088 -8.45028
lclavicle 1.27222e-014 -2.54444e-014
lhumerus 37.0231 -50.1072 71.8195
lradius 120.119
lwrist 76.1124
lhand -32.8356 32.1306
lfingers 7.12502
lthumb -6.05554 62.0241
rfemur -50.9414 -3.89835 14.9472
rtibia 52.4179
rfoot -17.6992 -21.83
rtoes -18.9104
lfemur -49.8266 -4.14967 -15.4826
ltibia 32.5659
lfoot -4.99846 6.56043
ltoes -32.02
3986
root -1.61651 17.0356 1.88094 -1426.19 112.771 -1450.6
lowerback 12.0597 3.43461 -9.71648
upperback 7.25605 4.20072 -3.60811
thorax 0.578549 2.13932 1.16808
lowerneck -2.29846 -13.5016 -11.2275
upperneck 12.9267 -20.9815 25.4993
head 8.48384 -9.2078 8.23437
rclavicle 1.27222e-014 -2.54444e-014
rhumerus 88.4154 7.09643 -78.9764
rradius 15.4651
rwrist 58.4597
rhand -8.51961 20.7901
rfingers 7.12502
rthumb 17.4088 -8.45028
lclavicle 1.27222e-014 -2.54444e-014
lhumerus 37.0231 -50.1072 71.8195
lradius 120.119
lwrist 76.1124
lhand -32.8356 32.1306
lfingers 7.12502
lthumb -6.05554 62.0241
rfemur -50.8792 -4.02813 14.8082
rtibia 52.93
rfoot -17.8086 -21.7879
rtoes -18.695
lfemur -49.7107 -4.25196 -15.6611
ltibia 32.7181
lfoot -5.15888 6.33663
ltoes -31.4968
3987
root -1.59831 17.0297 1.84935 -1426.1 112.567 -1450.43
lowerback 12.0597 3.43461 -9.71648
upperback 7.25605 4.20072 -3.60811
thorax 0.578549 2.13932 1.16808
lowerneck -2.29846 -13.5016 -11.2275
upperneck 12.9267 -20.9815 25.4993
head 8.48384 -9.2078 8.23437
rclavicle 1.27222e-014 -2.54444e-014
rhumerus 88.4154 7.09643 -78.9764
rradius 15.4651
rwrist 58.4597
rhand -8.51961 20.7901
rfingers 7.12502
rthumb 17.4088 -8.45028
lclavicle 1.27222e-014 -2.54444e-014
lhumerus 37.0231 -50.1072 71.8195
lradius 120.119
lwrist 76.1124
lhand -32.8356 32.1306
lfingers 7.12502
lthumb -6.05554 62.0241
rfemur -50.9889 -3.89414 14.7569
rtibia 53.4106
rfoot -17.7084 -21.6277
rtoes -18.6728
lfemur -49.6329 -4.03609 -15.7638
ltibia 32.921
lfoot -5.32319 6.29592
ltoes -31.5177
3988
root -1.59655 17.0299 1.84411 -1427.11 113.151 -1450.78
lowerback 12.0597 3.43461 -9.71648
upperback 7.25605 4.20072 -3.60811
thorax 0.578549 2.13932 1.16808
lowerneck -2.29846 -13.5016 -11.2275
upperneck 12.9267 -20.9815 25.4993
head 8.48384 -9.2078 8.23437
rclavicle 1.27222e-014 -2.54444e-014
rhumerus 88.4154 7.09643 -78.9764
rradius 15.4651
rwrist 58.4597
rhand -8.51961 20.7901
rfingers 7.12502
rthumb 17.4088 -8.45028
lclavicle 1.27222e-014 -2.54444e-014
lhumerus 37.0231 -50.1072 71.8195
lradius 120.119
lwrist 76.1124
lhand -32.8356 32.1306
lfingers 7.12502
lthumb -6.05554 62.0241
rfemur -50.2731 -4.32536 14.6434
rtibia 53.8711
rfoot -17.7035 -21.5856
rtoes -17.9953
lfemur -49.0044 -4.21428 -16.1186
ltibia 33.0782
lfoot -5.54524 5.73169
ltoes -31.4449
3989
root -1.58983 17.0252 1.82744 -1427.46 113.543 -1450.73
lowerback 12.0597 3.43461 -9.71648
upperback 7.25605 4.20072 -3.60811
thorax 0.578549 2.13932 1.16808
lowerneck -2.29846 -13.5016 -11.2275
upperneck 12.9267 -20.9815 25.4993
head 8.48384 -9.2078 8.23437
rclavicle 1.27222e-014 -2.54444e-014
rhumerus 88.4154 7.09643 -78.9764
rradius 15.4651
rwrist 58.4597
rhand -8.51961 20.7901
rfingers 7.12502
rthumb 17.4088 -8.45028
lclavicle 1.27222e-014 -2.54444e-014
lhumerus 37.0231 -50.1072 71.8195
lradius 120.119
lwrist 76.1124
lhand -32.8356 32.1306
lfingers 7.12502
lthumb -6.05554 62.0241
rfemur -49.9382 -4.63439 14.6403
rtibia 54.2543
rfoot -17.6967 -21.5917
rtoes -17.9987
lfemur -48.6734 -4.36173 -16.256
ltibia 33.2587
lfoot -5.71968 5.38973
ltoes -31.5158
3990
root -1.58247 17.0246 1.81154 -1427.76 113.976 -1450.57
lowerback 12.0597 3.43461 -9.71648
upperback 7.25605 4.20072 -3.60811
thorax 0.578549 2.13932 1.16808
lowerneck -2.29846 -13.5016 -11.2275
upperneck 12.9267 -20.9815 25.4993
head 8.48384 -9.2078 8.23437
rclavicle 1.27222e-014 -2.54444e-014
rhumerus 88.4154 7.09643 -78.9764
rradius 15.4651
rwrist 58.4597
rhand -8.51961 20.7901
rfingers 7.12502
rthumb 17.4088 -8.45028
lclavicle 1.27222e-014 -2.54444e-014
lhumerus 37.0231 -50.1072 71.8195
lradius 120.119
lwrist 76.1124
lhand -32.8356 32.1306
lfingers 7.12502
lthumb -6.05554 62.0241
rfemur -49.5388 -4.88063 14.6288
rtibia 54.5748
rfoot -17.809 -21.7057
rtoes -18.0938
lfemur -48.2411 -4.57578 -16.3098
ltibia 33.3565
lfoot -5.81325 5.07321
ltoes -31.5582
3991
root -1.57554 17.0215 1.79633 -1428.04 114.416 -1450.3
lowerback 12.0597 3.43461 -9.71648
upperback 7.25605 4.20072 -3.60811
thorax 0.578549 2.13932 1.16808
lowerneck -2.29846 -13.5016 -11.2275
upperneck 12.9267 -20.9815 25.4993
head 8.48384 -9.2078 8.23437
rclavicle 1.27222e-014 -2.54444e-014
rhumerus 88.4154 7.09643 -78.9764
rradius 15.4651
rwrist 58.4597
rhand -8.51961 20.7901
rfingers 7.12502
rthumb 17.4088 -8.45028
lclavicle 1.27222e-014 -2.54444e-014
lhumerus 37.0231 -50.1072 71.8195
lradius 120.119
lwrist 76.1124
lhand -32.8356 32.1306
lfingers 7.12502
lthumb -6.05554 62.0241
rfemur -49.0497 -5.17402 14.6931
rtibia 54.8899
rfoot -17.729 -21.8064
rtoes -18.0605
lfemur -47.7415 -4.79023 -16.3236
ltibia 33.403
lfoot -5.92027 4.83192
ltoes -31.1807
3992
root -1.56897 17.0181 1.78311 -1428.57 114.789 -1450.32
lowerback 12.0597 3.43461 -9.71648
upperback 7.25605 4.20072 -3.60811
thorax 0.578549 2.13932 1.16808
lowerneck -2.29846 -13.5016 -11.2275
upperneck 12.9267 -20.9815 25.4993
head 8.48384 -9.2078 8.23437
rclavicle 1.27222e-014 -2.54444e-014
rhumerus 88.4154 7.09643 -78.9764
rradius 15.4651
rwrist 58.4597
rhand -8.51961 20.7901
rfingers 7.12502
rthumb 17.4088 -8.45028
lclavicle 1.27222e-014 -2.54444e-014
lhumerus 37.0231 -50.1072 71.8195
lradius 120.119
lwrist 76.1124
lhand -32.8356 32.1306
lfingers 7.12502
lthumb -6.05554 62.0241
rfemur -48.5577 -5.45522 14.6532
rtibia 55.2099
rfoot -17.6695 -21.9654
rtoes -17.7129
lfemur -47.2098 -4.95719 -16.4764
ltibia 33.4178
lfoot -6.074 4.57801
ltoes -30.5059
3993
root -1.57499 17.0121 1.77449 -1429.94 116.054 -1450.77
lowerback 12.0597 3.43461 -9.71648
upperback 7.25605 4.20072 -3.60811
thorax 0.578549 2.13932 1.16808
lowerneck -2.29846 -13.5016 -11.2275
upperneck 12.9267 -20.9815 25.4993
head 8.48384 -9.2078 8.23437
rclavicle 1.27222e-014 -2.54444e-014
rhumerus 88.4154 7.09643 -78.9764
rradius 15.4651
rwrist 58.4597
rhand -8.51961 20.7901
rfingers 7.12502
rthumb 17.4088 -8.45028
lclavicle 1.27222e-014 -2.54444e-014
lhumerus 37.0231 -50.1072 71.8195
lradius 120.119
lwrist 76.1124
lhand -32.8356 32.1306
lfingers 7.12502
lthumb -6.05554 62.0241
rfemur -47.4491 -6.44638 14.3676
rtibia 55.5516
rfoot -17.9042 -22.1173
rtoes -16.8935
lfemur -46.3674 -6.31205 -16.6361
ltibia 33.437
lfoot -6.09308 4.51161
ltoes -29.7876
